<?xml version="1.0" standalone="no"?>
<!DOCTYPE svg PUBLIC "-//W3C//DTD SVG 20010904//EN" "http://www.w3.org/TR/2001/REC-SVG-20010904/DTD/svg10.dtd">
<svg version="1.0" xmlns="http://www.w3.org/2000/svg" width="201.000000pt" height="184.000000pt"
    viewBox="0 0 201.000000 184.000000" preserveAspectRatio="xMidYMid meet">

    <g transform="translate(0.000000,184.000000) scale(0.100000,-0.100000)" fill="#fbf9f6" stroke="none">
        <path d="M1443 1800 c-53 -11 -113 -42 -157 -80 l-34 -30 -365 0 c-334 0 -370
-2 -428 -20 -141 -43 -248 -146 -302 -289 -20 -53 -21 -79 -25 -450 -2 -264 0
-416 8 -462 33 -195 184 -346 380 -379 46 -8 196 -10 461 -8 387 4 395 4 454
27 77 31 128 66 187 128 52 57 79 103 102 182 13 46 16 113 16 419 l0 364 31
36 c86 98 109 249 57 364 -33 71 -103 142 -171 173 -59 27 -152 38 -214 25z
m135 -112 c35 -8 60 -25 98 -63 64 -64 84 -130 65 -213 -51 -212 -332 -246
-434 -52 -25 48 -28 63 -24 115 2 34 12 75 21 92 26 50 85 102 135 118 58 17
81 18 139 3z m-404 -270 c20 -150 145 -274 296 -294 l50 -7 0 -297 c0 -321 -5
-360 -54 -424 -14 -19 -49 -46 -78 -60 l-52 -26 -398 0 c-439 0 -440 0 -507
63 -71 67 -71 66 -71 508 0 270 4 407 11 430 24 71 91 132 163 149 17 5 167 8
332 9 l301 1 7 -52z" />
    </g>
</svg>